<svg xmlns="http://www.w3.org/2000/svg" viewBox="0 0 1024 1024" width="1024" height="1024">
  <defs>
    <mask id="face-b" maskUnits="userSpaceOnUse" x="-1024" y="-1024" width="2048" height="2048">
      <rect x="-1024" y="-1024" width="2048" height="2048" fill="white"/>
      <g id="eyes-b"><path d="M -114.0 -38.0 Q -76.0 -92.0 -38.0 -38.0" fill="none" stroke="black" stroke-width="24" stroke-linecap="round"/><path d="M 38.0 -38.0 Q 76.0 -92.0 114.0 -38.0" fill="none" stroke="black" stroke-width="24" stroke-linecap="round"/></g>
      <g id="mouth-b"><path d="M -62 46 Q 0 116 62 46" fill="none" stroke="black" stroke-width="26" stroke-linecap="round"/></g>
    </mask>
  </defs>
  <rect width="100%" height="100%" fill="#F7F7F2"/>
  <g transform="translate(512.0,512.0)">
    <g fill="#E9A23C" mask="url(#face-b)">
      <g id="rays-b">
        
<path d="M 184.5 -59.9 Q 307.7 -74.0 390.0 -40.0 A 40.0 40.0 0 0 1 390.0 40.0 Q 307.7 74.0 184.5 59.9 Z" transform="rotate(-90.00)"/>        <path d="M 184.5 -59.9 Q 307.7 -74.0 390.0 -40.0 A 40.0 40.0 0 0 1 390.0 40.0 Q 307.7 74.0 184.5 59.9 Z" transform="rotate(-50.00)"/>        <path d="M 184.5 -59.9 Q 307.7 -74.0 390.0 -40.0 A 40.0 40.0 0 0 1 390.0 40.0 Q 307.7 74.0 184.5 59.9 Z" transform="rotate(-10.00)"/>        <path d="M 184.5 -59.9 Q 307.7 -74.0 390.0 -40.0 A 40.0 40.0 0 0 1 390.0 40.0 Q 307.7 74.0 184.5 59.9 Z" transform="rotate(30.00)"/>        <path d="M 184.5 -59.9 Q 307.7 -74.0 390.0 -40.0 A 40.0 40.0 0 0 1 390.0 40.0 Q 307.7 74.0 184.5 59.9 Z" transform="rotate(70.00)"/>        <path d="M 184.5 -59.9 Q 307.7 -74.0 390.0 -40.0 A 40.0 40.0 0 0 1 390.0 40.0 Q 307.7 74.0 184.5 59.9 Z" transform="rotate(110.00)"/>        <path d="M 184.5 -59.9 Q 307.7 -74.0 390.0 -40.0 A 40.0 40.0 0 0 1 390.0 40.0 Q 307.7 74.0 184.5 59.9 Z" transform="rotate(150.00)"/>        <path d="M 184.5 -59.9 Q 307.7 -74.0 390.0 -40.0 A 40.0 40.0 0 0 1 390.0 40.0 Q 307.7 74.0 184.5 59.9 Z" transform="rotate(190.00)"/>        <path d="M 184.5 -59.9 Q 307.7 -74.0 390.0 -40.0 A 40.0 40.0 0 0 1 390.0 40.0 Q 307.7 74.0 184.5 59.9 Z" transform="rotate(230.00)"/>
      </g>
      <circle id="body-b" cx="0" cy="0" r="212"/>
    </g>
  </g>
</svg>